<?xml version="1.0" encoding="UTF-8" standalone="no"?>
<svg xmlns:rdf="http://www.w3.org/1999/02/22-rdf-syntax-ns#" xmlns="http://www.w3.org/2000/svg" height="41.958" width="333" version="1.1" xmlns:cc="http://creativecommons.org/ns#" xmlns:dc="http://purl.org/dc/elements/1.1/">
 <metadata>
  <rdf:RDF>
   <cc:Work rdf:about="">
    <dc:format>image/svg+xml</dc:format>
    <dc:type rdf:resource="http://purl.org/dc/dcmitype/StillImage"/>
    <dc:title/>
   </cc:Work>
  </rdf:RDF>
 </metadata>
 <g transform="translate(-106.5 -122.27)">
  <path d="m108 143.36v6h57v-6" stroke="#000" stroke-width="1px" fill="none"/>
  <path d="m207 143.36v6h147v-6" stroke="#000" stroke-width="1px" fill="none"/>
  <path d="m354 149.36h84v-6" stroke="#000" stroke-width="1px" fill="none"/>
  <text style="word-spacing:0px;letter-spacing:0px" xml:space="preserve" font-size="12px" y="160.36218" x="116" font-family="Source Sans Pro" line-height="125%" fill="#000000"><tspan x="108" y="160.36218">scheme(protocol)</tspan></text>
  <text style="word-spacing:0px;letter-spacing:0px" xml:space="preserve" font-size="12px" y="160.36218" x="270" font-family="Source Sans Pro" line-height="125%" fill="#000000"><tspan x="240" y="160.36218">server(host name)</tspan></text>
  <text style="word-spacing:0px;letter-spacing:0px" xml:space="preserve" font-size="12px" y="160.36218" x="386" font-family="Source Sans Pro" line-height="125%" fill="#000000"><tspan x="386" y="160.36218">path</tspan></text>
  <g>
   <path d="m110.23 123.27h1.968v4.656l-0.096 2.76c0.624-0.65599 1.288-1.2 1.992-1.632 0.70399-0.43199 1.512-0.64799 2.424-0.648 1.392 0.00001 2.408 0.40001 3.048 1.2 0.65599 0.78401 0.98399 1.952 0.984 3.504v7.248h-1.968v-6.984c-0.00001-1.104-0.20801-1.92-0.624-2.448-0.41601-0.54399-1.104-0.81599-2.064-0.816-0.35201 0.00001-0.68001 0.048-0.984 0.144-0.28801 0.08-0.57601 0.20801-0.864 0.384-0.28801 0.17601-0.58401 0.40001-0.888 0.672-0.304 0.25601-0.624 0.56001-0.96 0.912v8.136h-1.968v-17.088"/>
   <path d="m127.33 130.31h-3.288v-1.488l3.36-0.12 0.264-3.264h1.632v3.264h5.736v1.608h-5.736v5.544c0 0.52801 0.048 0.99201 0.144 1.392 0.096 0.38401 0.256 0.71201 0.48 0.984 0.224 0.272 0.528 0.48 0.912 0.624 0.384 0.128 0.856 0.192 1.416 0.192 0.55999 0 1.064-0.048 1.512-0.144 0.44799-0.096 0.87999-0.224 1.296-0.384l0.43201 1.44c-0.52802 0.192-1.112 0.352-1.752 0.48-0.64001 0.144-1.28 0.216-1.92 0.216-0.848 0-1.56-0.112-2.136-0.336-0.576-0.24-1.04-0.568-1.392-0.984-0.336-0.432-0.584-0.944-0.744-1.536-0.144-0.59199-0.216-1.248-0.21599-1.968v-5.52"/>
   <path d="m141.73 130.31h-3.288v-1.488l3.36-0.12 0.264-3.264h1.632v3.264h5.736v1.608h-5.736v5.544c-0.00001 0.52801 0.048 0.99201 0.144 1.392 0.096 0.38401 0.25599 0.71201 0.48 0.984 0.22399 0.272 0.52799 0.48 0.912 0.624 0.38399 0.128 0.85599 0.192 1.416 0.192 0.55999 0 1.064-0.048 1.512-0.144 0.44799-0.096 0.87999-0.224 1.296-0.384l0.432 1.44c-0.52801 0.192-1.112 0.352-1.752 0.48-0.64001 0.144-1.28 0.216-1.92 0.216-0.84801 0-1.56-0.112-2.136-0.336-0.57601-0.24-1.04-0.568-1.392-0.984-0.33601-0.432-0.58401-0.944-0.744-1.536-0.14401-0.59199-0.216-1.248-0.216-1.968v-5.52"/>
   <path d="m155.37 141.35v3.936h-1.968v-16.584h1.632l0.168 1.488h0.072c0.54399-0.51199 1.168-0.93599 1.872-1.272 0.72-0.33599 1.44-0.50399 2.16-0.504 0.784 0.00001 1.472 0.14401 2.064 0.432 0.60799 0.27201 1.112 0.67201 1.512 1.2 0.41599 0.51201 0.72799 1.136 0.936 1.872 0.20799 0.72001 0.31199 1.536 0.312 2.448-0.00001 0.99201-0.14401 1.88-0.432 2.664-0.28801 0.76801-0.68001 1.424-1.176 1.968-0.48001 0.544-1.04 0.96-1.68 1.248-0.64 0.272-1.312 0.408-2.016 0.408-0.544 0-1.136-0.128-1.776-0.384-0.624-0.272-1.2-0.648-1.728-1.128l0.048 2.208m0-3.72c0.56 0.496 1.12 0.848 1.68 1.056s1.04 0.312 1.44 0.312c1.056 0 1.92-0.408 2.592-1.224 0.67199-0.81599 1.008-1.952 1.008-3.408-0.00001-0.63999-0.064-1.224-0.192-1.752-0.12801-0.52799-0.32801-0.97599-0.6-1.344-0.256-0.38399-0.592-0.67999-1.008-0.888-0.416-0.20799-0.912-0.31199-1.488-0.312-0.512 0.00001-1.064 0.14401-1.656 0.432-0.576 0.27201-1.168 0.71201-1.776 1.32v5.808"/>
   <path d="m170.82 130.04c-0.00001-0.60799 0.18399-1.096 0.552-1.464 0.38399-0.38399 0.84799-0.57599 1.392-0.576 0.54399 0.00001 0.99999 0.19201 1.368 0.576 0.38399 0.36801 0.57599 0.85601 0.576 1.464-0.00001 0.60801-0.19201 1.096-0.576 1.464-0.36801 0.36801-0.82401 0.55201-1.368 0.552-0.54401 0.00001-1.008-0.18399-1.392-0.552-0.36801-0.36799-0.55201-0.85599-0.552-1.464m0 8.592c-0.00001-0.608 0.18399-1.096 0.552-1.464 0.38399-0.38399 0.84799-0.57599 1.392-0.576 0.54399 0.00001 0.99999 0.19201 1.368 0.576 0.38399 0.36801 0.57599 0.856 0.576 1.464-0.00001 0.608-0.19201 1.096-0.576 1.464-0.36801 0.368-0.82401 0.552-1.368 0.552-0.54401 0-1.008-0.184-1.392-0.552-0.36801-0.368-0.55201-0.856-0.552-1.464"/>
   <path d="m184.11 144.2h-1.776l7.872-20.88h1.776l-7.872 20.88"/>
   <path d="m198.5 144.2h-1.776l7.872-20.88h1.776l-7.872 20.88"/>
   <path d="m208.93 128.7h2.016l1.416 6.744c0.112 0.56001 0.216 1.104 0.312 1.632 0.096 0.52801 0.184 1.064 0.264 1.608h0.096c0.112-0.544 0.224-1.08 0.336-1.608 0.112-0.54399 0.232-1.088 0.36-1.632l1.416-6.048h1.68l1.44 6.048c0.128 0.56001 0.248 1.104 0.36 1.632 0.11199 0.52801 0.23199 1.064 0.36 1.608h0.096c0.11199-0.544 0.20799-1.08 0.288-1.608 0.096-0.52799 0.19199-1.072 0.288-1.632l1.416-6.744h1.872l-2.544 11.664h-2.376l-1.392-5.904c-0.11201-0.55999-0.21601-1.112-0.31201-1.656-0.096-0.55999-0.208-1.136-0.336-1.728h-0.096c-0.096 0.51201-0.192 1.04-0.288 1.584-0.096 0.54401-0.216 1.152-0.36 1.824l-1.344 5.88h-2.352l-2.616-11.664"/>
   <path d="m223.32 128.7h2.016l1.416 6.744c0.112 0.56001 0.216 1.104 0.312 1.632 0.096 0.52801 0.184 1.064 0.264 1.608h0.096c0.112-0.544 0.224-1.08 0.336-1.608 0.112-0.54399 0.232-1.088 0.36-1.632l1.416-6.048h1.68l1.44 6.048c0.12799 0.56001 0.24799 1.104 0.36 1.632 0.11199 0.52801 0.23199 1.064 0.36 1.608h0.096c0.11199-0.544 0.20799-1.08 0.288-1.608 0.096-0.52799 0.19199-1.072 0.288-1.632l1.416-6.744h1.872l-2.544 11.664h-2.376l-1.392-5.904c-0.11201-0.55999-0.21601-1.112-0.312-1.656-0.096-0.55999-0.20801-1.136-0.336-1.728h-0.096c-0.096 0.51201-0.19201 1.04-0.288 1.584-0.096 0.54401-0.21601 1.152-0.36 1.824l-1.344 5.88h-2.352l-2.616-11.664"/>
   <path d="m237.71 128.7h2.016l1.416 6.744c0.112 0.56001 0.216 1.104 0.312 1.632 0.096 0.52801 0.184 1.064 0.264 1.608h0.096c0.112-0.544 0.224-1.08 0.336-1.608 0.112-0.54399 0.232-1.088 0.36-1.632l1.416-6.048h1.68l1.44 6.048c0.128 0.56001 0.248 1.104 0.36 1.632 0.11199 0.52801 0.23199 1.064 0.36 1.608h0.096c0.11199-0.544 0.20799-1.08 0.288-1.608 0.096-0.52799 0.19199-1.072 0.288-1.632l1.416-6.744h1.872l-2.544 11.664h-2.376l-1.392-5.904c-0.11201-0.55999-0.21601-1.112-0.31201-1.656-0.096-0.55999-0.208-1.136-0.336-1.728h-0.096c-0.096 0.51201-0.192 1.04-0.288 1.584-0.096 0.54401-0.216 1.152-0.36 1.824l-1.344 5.88h-2.352l-2.616-11.664"/>
   <path d="m257.16 138.63c-0.00001-0.608 0.18399-1.096 0.552-1.464 0.38399-0.38399 0.84799-0.57599 1.392-0.576 0.54399 0.00001 0.99999 0.19201 1.368 0.576 0.38399 0.36801 0.57599 0.856 0.576 1.464-0.00001 0.608-0.19201 1.096-0.576 1.464-0.36801 0.368-0.82401 0.552-1.368 0.552-0.54401 0-1.008-0.184-1.392-0.552-0.36801-0.368-0.55201-0.856-0.552-1.464"/>
   <path d="m266.49 128.7h2.016l1.416 6.744c0.11199 0.56001 0.21599 1.104 0.31199 1.632 0.096 0.52801 0.184 1.064 0.264 1.608h0.096c0.112-0.544 0.224-1.08 0.336-1.608 0.112-0.54399 0.232-1.088 0.36001-1.632l1.416-6.048h1.68l1.44 6.048c0.12799 0.56001 0.24799 1.104 0.35999 1.632 0.112 0.52801 0.23199 1.064 0.36 1.608h0.096c0.11199-0.544 0.20799-1.08 0.288-1.608 0.096-0.52799 0.19199-1.072 0.28801-1.632l1.416-6.744h1.872l-2.544 11.664h-2.376l-1.392-5.904c-0.11201-0.55999-0.21601-1.112-0.31201-1.656-0.096-0.55999-0.208-1.136-0.336-1.728h-0.096c-0.096 0.51201-0.192 1.04-0.288 1.584-0.096 0.54401-0.216 1.152-0.35999 1.824l-1.344 5.88h-2.352l-2.616-11.664"/>
   <path d="m283.06 137.19c0.512 0.48001 1.12 0.904 1.824 1.272 0.72 0.368 1.576 0.552 2.568 0.552 0.52799 0 1.016-0.064 1.464-0.192 0.44799-0.144 0.83199-0.336 1.152-0.576 0.33599-0.24 0.59199-0.52799 0.768-0.864 0.19199-0.35199 0.28799-0.74399 0.288-1.176-0.00001-0.44799-0.10401-0.85599-0.312-1.224-0.19201-0.38399-0.51201-0.71199-0.96-0.984-0.44801-0.27199-1.024-0.47999-1.728-0.624-0.70401-0.14399-1.56-0.21599-2.568-0.216v-1.512c0.91199 0.00001 1.68-0.072 2.304-0.216 0.63999-0.14399 1.16-0.34399 1.56-0.6 0.39999-0.25599 0.68799-0.55999 0.864-0.912 0.19199-0.35199 0.28799-0.72799 0.288-1.128-0.00001-0.75199-0.28801-1.344-0.864-1.776-0.56001-0.43198-1.312-0.64798-2.256-0.648-0.72001 0.00002-1.4 0.14402-2.04 0.432-0.64 0.28802-1.216 0.66402-1.728 1.128l-1.056-1.248c0.64-0.55998 1.368-1.016 2.184-1.368 0.816-0.36798 1.72-0.55198 2.712-0.552 0.71999 0.00002 1.384 0.088 1.992 0.264 0.62399 0.17602 1.16 0.43202 1.608 0.768 0.46399 0.32002 0.82399 0.72002 1.08 1.2 0.25599 0.48002 0.38399 1.032 0.384 1.656-0.00001 0.92801-0.30401 1.688-0.912 2.28-0.60801 0.59201-1.392 1.048-2.352 1.368v0.096c0.51199 0.11201 0.99199 0.28001 1.44 0.504 0.46399 0.20801 0.87199 0.48001 1.224 0.816 0.35199 0.32001 0.62399 0.69601 0.816 1.128 0.20799 0.43201 0.31199 0.91201 0.312 1.44-0.00001 0.67201-0.14401 1.28-0.432 1.824-0.28801 0.544-0.68801 1.008-1.2 1.392-0.49601 0.368-1.08 0.656-1.752 0.864-0.67201 0.192-1.392 0.288-2.16 0.288-1.328 0-2.44-0.216-3.336-0.648-0.896-0.448-1.624-0.952-2.184-1.512l1.008-1.296"/>
   <path d="m300.33 138.63c0-0.608 0.184-1.096 0.552-1.464 0.384-0.38399 0.848-0.57599 1.392-0.576 0.544 0.00001 1 0.19201 1.368 0.576 0.384 0.36801 0.576 0.856 0.576 1.464s-0.192 1.096-0.576 1.464c-0.368 0.368-0.824 0.552-1.368 0.552s-1.008-0.184-1.392-0.552c-0.368-0.368-0.552-0.856-0.552-1.464"/>
   <path d="m310.91 134.55c0-0.97599 0.152-1.84 0.456-2.592 0.32-0.76799 0.744-1.416 1.272-1.944 0.528-0.52799 1.136-0.92799 1.824-1.2 0.70399-0.27199 1.44-0.40799 2.208-0.408 0.76799 0.00001 1.496 0.13601 2.184 0.408 0.70399 0.27201 1.32 0.67201 1.848 1.2 0.52799 0.52801 0.94399 1.176 1.248 1.944 0.31999 0.75201 0.47999 1.616 0.48 2.592-0.00001 0.96001-0.16001 1.824-0.48 2.592-0.30401 0.75201-0.72001 1.392-1.248 1.92-0.52801 0.512-1.144 0.904-1.848 1.176-0.68801 0.272-1.416 0.408-2.184 0.408-0.76801 0-1.504-0.136-2.208-0.408-0.688-0.272-1.296-0.664-1.824-1.176-0.528-0.528-0.952-1.168-1.272-1.92-0.304-0.76799-0.456-1.632-0.456-2.592m2.04 0c0 0.67201 0.088 1.28 0.264 1.824 0.176 0.54401 0.424 1.016 0.744 1.416 0.336 0.384 0.72799 0.688 1.176 0.912 0.46399 0.208 0.97599 0.312 1.536 0.312 0.55999 0 1.064-0.104 1.512-0.312 0.46399-0.224 0.85599-0.528 1.176-0.912 0.33599-0.39999 0.59199-0.87199 0.768-1.416 0.17599-0.54399 0.26399-1.152 0.264-1.824-0.00001-0.67199-0.088-1.28-0.264-1.824-0.17601-0.55999-0.43201-1.04-0.768-1.44-0.32001-0.39999-0.71201-0.70399-1.176-0.912-0.44801-0.22399-0.95201-0.33599-1.512-0.336-0.56001 0.00001-1.072 0.11201-1.536 0.336-0.44801 0.20801-0.84 0.51201-1.176 0.912-0.32 0.40001-0.568 0.88001-0.744 1.44-0.176 0.54401-0.264 1.152-0.264 1.824"/>
   <path d="m327.36 128.7h1.632l0.16799 2.76h0.072c0.608-0.94399 1.352-1.688 2.232-2.232 0.896-0.54399 1.888-0.81599 2.976-0.816 0.43199 0.00001 0.83199 0.04 1.2 0.12 0.36799 0.064 0.73599 0.18401 1.104 0.36l-0.45599 1.704c-0.41602-0.14399-0.76802-0.24799-1.056-0.312-0.27201-0.064-0.64001-0.096-1.104-0.096-0.88 0.00001-1.728 0.25601-2.544 0.768-0.8 0.49601-1.552 1.352-2.256 2.568v6.84h-1.968v-11.664"/>
   <path d="m341.68 142.31c0 0.608 0.32 1.104 0.96 1.488 0.65599 0.384 1.608 0.576 2.856 0.576 0.67199 0 1.28-0.072 1.824-0.216 0.54399-0.128 1.008-0.304 1.392-0.528 0.38399-0.224 0.67199-0.48 0.864-0.768 0.20799-0.288 0.31199-0.584 0.312-0.888-0.00001-0.56-0.22401-0.936-0.672-1.128-0.43201-0.192-1.096-0.288-1.992-0.288h-2.28c-0.33601 0-0.65601-0.016-0.96-0.048-0.28801-0.016-0.56001-0.064-0.816-0.144-0.56 0.304-0.952 0.616-1.176 0.936-0.208 0.336-0.312 0.672-0.312 1.008m-1.704 0.192c0-0.464 0.16-0.92 0.48-1.368 0.336-0.448 0.816-0.856 1.44-1.224v-0.096c-0.32-0.176-0.6-0.416-0.84-0.72s-0.36-0.704-0.36-1.2c0-0.36799 0.12-0.74399 0.36-1.128 0.24-0.39999 0.584-0.75199 1.032-1.056v-0.096c-0.4-0.30399-0.744-0.70399-1.032-1.2-0.272-0.51199-0.408-1.12-0.408-1.824 0-0.63999 0.12-1.216 0.36-1.728 0.256-0.51199 0.592-0.94399 1.008-1.296 0.416-0.36799 0.896-0.64799 1.44-0.84 0.55999-0.20799 1.152-0.31199 1.776-0.312 0.63999 0.00001 1.216 0.096 1.728 0.288h4.824v1.512h-3.12c0.27199 0.28801 0.51999 0.64001 0.744 1.056 0.22399 0.41601 0.33599 0.88001 0.336 1.392-0.00001 0.62401-0.12001 1.184-0.36 1.68-0.22401 0.49601-0.54401 0.92001-0.96 1.272-0.40001 0.33601-0.88001 0.60001-1.44 0.792-0.54401 0.17601-1.128 0.26401-1.752 0.264-0.30401 0.00001-0.63201-0.032-0.984-0.096-0.33601-0.08-0.66401-0.19199-0.984-0.336-0.608 0.38401-0.912 0.83201-0.912 1.344 0 0.464 0.208 0.808 0.624 1.032 0.43199 0.208 1.032 0.312 1.8 0.312h2.616c1.504 0 2.616 0.208 3.336 0.624 0.73599 0.416 1.104 1.12 1.104 2.112-0.00001 0.544-0.15201 1.064-0.456 1.56-0.30401 0.496-0.73601 0.928-1.296 1.296-0.56001 0.368-1.24 0.664-2.04 0.888-0.80001 0.224-1.696 0.336-2.688 0.336-1.712 0-3.04-0.28-3.984-0.84-0.928-0.56-1.392-1.36-1.392-2.4m5.256-7.152c0.75199 0.00001 1.384-0.24799 1.896-0.744 0.52799-0.49599 0.79199-1.168 0.792-2.016-0.00001-0.39999-0.072-0.76799-0.216-1.104-0.14401-0.33599-0.33601-0.62399-0.576-0.864-0.24001-0.23999-0.52801-0.42399-0.864-0.552-0.32001-0.14399-0.66401-0.21599-1.032-0.216-0.36801 0.00001-0.72001 0.072-1.056 0.216-0.32001 0.12801-0.60001 0.31201-0.84 0.552-0.24 0.24001-0.432 0.52801-0.576 0.864-0.144 0.33601-0.216 0.70401-0.216 1.104 0 0.84801 0.264 1.52 0.792 2.016 0.52799 0.49601 1.16 0.74401 1.896 0.744"/>
   <path d="m356.79 144.2h-1.776l7.872-20.88h1.776l-7.872 20.88"/>
   <path d="m369.26 123.27h1.968v4.656l-0.096 2.76c0.624-0.65599 1.288-1.2 1.992-1.632 0.70399-0.43199 1.512-0.64799 2.424-0.648 1.392 0.00001 2.408 0.40001 3.048 1.2 0.65599 0.78401 0.98399 1.952 0.984 3.504v7.248h-1.968v-6.984c-0.00001-1.104-0.20801-1.92-0.624-2.448-0.41601-0.54399-1.104-0.81599-2.064-0.816-0.35201 0.00001-0.68001 0.048-0.984 0.144-0.28801 0.08-0.57601 0.20801-0.864 0.384-0.28801 0.17601-0.58401 0.40001-0.888 0.672-0.304 0.25601-0.624 0.56001-0.96 0.912v8.136h-1.968v-17.088"/>
   <path d="m386.37 130.31h-3.288v-1.488l3.36-0.12 0.26399-3.264h1.632v3.264h5.736v1.608h-5.736v5.544c0 0.52801 0.048 0.99201 0.144 1.392 0.096 0.38401 0.256 0.71201 0.48 0.984 0.224 0.272 0.528 0.48 0.912 0.624 0.384 0.128 0.856 0.192 1.416 0.192 0.55999 0 1.064-0.048 1.512-0.144 0.44799-0.096 0.87999-0.224 1.296-0.384l0.43199 1.44c-0.52801 0.192-1.112 0.352-1.752 0.48-0.64001 0.144-1.28 0.216-1.92 0.216-0.84801 0-1.56-0.112-2.136-0.336-0.576-0.24-1.04-0.568-1.392-0.984-0.336-0.432-0.584-0.944-0.74399-1.536-0.14401-0.59199-0.21601-1.248-0.216-1.968v-5.52"/>
   <path d="m397.25 128.7h1.536l0.168 1.536h0.072c0.288-0.54399 0.624-0.98399 1.008-1.32 0.4-0.33599 0.93599-0.50399 1.608-0.504 1.184 0.00001 1.92 0.67201 2.208 2.016 0.35199-0.60799 0.73599-1.096 1.152-1.464 0.41599-0.36799 0.95199-0.55199 1.608-0.552 0.81599 0.00001 1.44 0.31201 1.872 0.936 0.44799 0.60801 0.67199 1.496 0.672 2.664v8.352h-1.896v-8.184c-0.00001-1.376-0.42401-2.064-1.272-2.064-0.41601 0.00001-0.77601 0.15201-1.08 0.456-0.30401 0.28801-0.60801 0.73601-0.912 1.344v8.448h-1.584v-8.184c-0.00001-1.376-0.44001-2.064-1.32-2.064-0.416 0.00001-0.768 0.15201-1.056 0.456-0.288 0.28801-0.584 0.73601-0.888 1.344v8.448h-1.896v-11.664"/>
   <path d="m412.15 123.27h5.952v13.32c-0.00001 0.86401 0.19999 1.488 0.59999 1.872 0.416 0.368 0.976 0.552 1.68 0.552 0.63999 0 1.376-0.184 2.208-0.552l0.50399 1.488c-0.52801 0.192-1.024 0.352-1.488 0.48-0.46401 0.144-1.016 0.216-1.656 0.216-1.248 0-2.2-0.352-2.856-1.056-0.64-0.704-0.96-1.752-0.96-3.144v-11.568h-3.984v-1.608"/>
   <path d="m428.75 144.2h-1.776l7.872-20.88h1.776l-7.872 20.88"/>
  </g>
 </g>
</svg>
